<?xml version="1.0" standalone="no"?>
<!DOCTYPE svg PUBLIC "-//W3C//DTD SVG 20010904//EN"
 "http://www.w3.org/TR/2001/REC-SVG-20010904/DTD/svg10.dtd">
<svg version="1.0" xmlns="http://www.w3.org/2000/svg"
 width="500.000000pt" height="500.000000pt" viewBox="0 0 500.000000 500.000000"
 preserveAspectRatio="xMidYMid meet">
<metadata>
Created by potrace 1.14, written by Peter Selinger 2001-2017
</metadata>
<g transform="translate(0.000000,500.000000) scale(0.100000,-0.100000)"
fill="#000000" stroke="none">
<path d="M4018 4515 c-1 -1 -23 -5 -48 -8 -103 -14 -312 -88 -334 -119 -35
-49 32 -99 70 -52 6 8 67 30 135 50 105 30 140 36 229 38 170 2 259 -46 296
-162 22 -68 24 -203 4 -307 -56 -296 -313 -786 -636 -1212 -100 -133 -108
-157 -51 -166 18 -2 37 -3 42 0 13 5 173 221 252 338 230 345 422 742 479 990
26 117 24 291 -5 367 -40 103 -129 189 -232 223 -43 15 -191 29 -201 20z"/>
<path d="M2448 4495 c-2 -1 -47 -5 -100 -9 -179 -12 -375 -58 -560 -132 -457
-182 -849 -561 -1049 -1013 -61 -139 -104 -272 -132 -412 -34 -165 -40 -218
-42 -384 -9 -615 247 -1169 729 -1578 86 -73 116 -82 141 -43 21 31 12 48 -48
94 -205 154 -394 378 -518 612 -80 151 -163 382 -185 520 -2 14 -6 34 -9 45
-20 92 -28 445 -13 566 91 721 602 1337 1286 1553 193 61 332 81 552 81 151 0
240 -8 344 -31 39 -8 82 -17 95 -20 131 -27 402 -144 534 -230 177 -117 342
-267 485 -444 55 -67 74 -84 92 -82 67 7 65 51 -6 143 -334 432 -814 700
-1352 754 -60 6 -240 13 -244 10z"/>
<path d="M4315 3043 c-11 -11 -15 -25 -11 -42 49 -225 58 -295 61 -471 3 -147
-12 -294 -43 -435 -20 -87 -72 -259 -92 -300 -5 -11 -25 -54 -43 -95 -41 -92
-129 -238 -205 -339 -62 -82 -237 -264 -317 -328 -219 -176 -526 -319 -790
-369 -22 -4 -47 -9 -55 -10 -64 -13 -170 -19 -315 -19 -177 0 -309 17 -452 56
-53 15 -78 17 -92 10 -44 -24 -30 -75 26 -90 157 -41 181 -46 269 -56 33 -4
70 -9 84 -11 32 -5 282 -5 335 0 247 25 469 88 685 195 452 224 800 616 971
1092 34 95 63 195 75 254 7 35 23 129 30 170 3 22 7 126 9 230 2 145 -1 218
-15 307 -38 247 -64 303 -115 251z"/>
<path d="M3382 2510 c-51 -16 -104 -35 -117 -44 -13 -9 -106 -84 -207 -168
-199 -166 -184 -159 -313 -144 -38 4 -90 10 -115 12 -25 2 -65 6 -90 10 -73
11 -99 7 -140 -26 -39 -31 -63 -79 -55 -115 2 -11 4 -25 4 -30 1 -6 11 -21 24
-35 12 -14 49 -55 81 -93 l59 -67 -18 -34 c-23 -43 -16 -135 15 -196 28 -54
110 -143 152 -163 37 -18 84 -14 109 8 16 16 23 11 109 -72 50 -48 99 -92 107
-97 21 -12 99 -2 115 15 8 8 27 31 42 52 l29 38 1 194 c1 160 4 197 17 212 58
67 309 374 329 402 13 19 38 82 56 140 36 118 34 147 -13 192 -41 39 -75 41
-181 9z m88 -197 c-42 -112 -55 -130 -105 -139 -53 -9 -56 -9 -227 -42 -82
-16 -148 -28 -148 -27 0 3 108 95 168 143 22 19 51 43 64 54 13 11 34 28 47
37 34 23 214 79 225 70 4 -4 -7 -47 -24 -96z m-926 -292 c-2 -3 -12 -6 -22 -7
-9 -2 -30 -5 -46 -8 -25 -5 -27 -4 -16 9 8 10 27 15 51 13 21 -1 36 -4 33 -7z
m26 -196 c13 -14 21 -25 18 -25 -2 0 -15 11 -28 25 -13 14 -21 25 -18 25 2 0
15 -11 28 -25z m153 -163 c31 -32 57 -62 57 -68 0 -5 -15 -25 -34 -43 -33 -32
-34 -32 -64 -17 -27 14 -112 109 -112 125 1 9 73 60 85 61 6 0 36 -26 68 -58z
m172 -182 c21 -22 37 -40 34 -40 -3 0 -23 18 -44 40 -21 22 -37 40 -34 40 3 0
23 -18 44 -40z m157 -82 c-19 -19 -19 -18 -3 54 l16 73 3 -54 c3 -43 -1 -58
-16 -73z"/>
<path d="M2284 1258 c-273 -212 -586 -403 -876 -534 -96 -43 -250 -98 -305
-108 -107 -20 -146 -24 -203 -21 -129 4 -209 47 -251 131 -21 44 -24 62 -23
169 0 104 4 136 33 240 43 155 46 172 31 190 -15 18 -54 20 -68 2 -16 -19 -61
-162 -82 -263 -25 -124 -21 -286 10 -368 47 -122 170 -205 312 -210 63 -2 184
11 273 29 242 50 753 327 1125 610 201 153 223 178 188 213 -23 23 -46 12
-164 -80z"/>
</g>
</svg>
